#usda 1.0
(
    defaultPrim = "World"
)

def Xform "World" {

    def Mesh "CombinedMesh" (
        prepend apiSchemas = ["PhysicsCollisionAPI", "PhysicsMeshCollisionAPI"]
    )
    {
        uniform float3[] extent = [
            (-15, -15, -3.5),
            (15, 15, 1.28)
        ]
        point3f[] points = [
            (15, -15, -3.5),
            (15, 15, -3.5),
            (15, -15, -2.5),
            (15, 15, -2.5),
            (-15, -15, -2.5),
            (-15, 15, -2.5),
            (-15, -15, -3.5),
            (-15, 15, -3.5),
            (15, -15, -2.5),
            (15, 15, -2.5),
            (-15, -15, -2.5),
            (-15, 15, -2.5),
            (-15, -15, -3.5),
            (15, -15, -3.5),
            (15, 15, -3.5),
            (-15, 15, -3.5),
            (15, 15, -3.5),
            (15, 15, -2.5),
            (-15, 15, -2.5),
            (-15, 15, -3.5),
            (-15, -15, -3.5),
            (-15, -15, -2.5),
            (15, -15, -2.5),
            (15, -15, -3.5),
            (6.03, -0.5, 0.28),
            (6.03, 0.5, 0.28),
            (6.03, -0.5, 1.28),
            (6.03, 0.5, 1.28),
            (5.03, -0.5, 1.28),
            (5.03, 0.5, 1.28),
            (5.03, -0.5, 0.28),
            (5.03, 0.5, 0.28),
            (6.03, -0.5, 1.28),
            (6.03, 0.5, 1.28),
            (5.03, -0.5, 1.28),
            (5.03, 0.5, 1.28),
            (5.03, -0.5, 0.28),
            (6.03, -0.5, 0.28),
            (6.03, 0.5, 0.28),
            (5.03, 0.5, 0.28),
            (6.03, 0.5, 0.28),
            (6.03, 0.5, 1.28),
            (5.03, 0.5, 1.28),
            (5.03, 0.5, 0.28),
            (5.03, -0.5, 0.28),
            (5.03, -0.5, 1.28),
            (6.03, -0.5, 1.28),
            (6.03, -0.5, 0.28),
            (1.29, -3.46, 0.28),
            (1.29, -2.46, 0.28),
            (1.29, -3.46, 1.28),
            (1.29, -2.46, 1.28),
            (0.29, -3.46, 1.28),
            (0.29, -2.46, 1.28),
            (0.29, -3.46, 0.28),
            (0.29, -2.46, 0.28),
            (1.29, -3.46, 1.28),
            (1.29, -2.46, 1.28),
            (0.29, -3.46, 1.28),
            (0.29, -2.46, 1.28),
            (0.29, -3.46, 0.28),
            (1.29, -3.46, 0.28),
            (1.29, -2.46, 0.28),
            (0.29, -2.46, 0.28),
            (1.29, -2.46, 0.28),
            (1.29, -2.46, 1.28),
            (0.29, -2.46, 1.28),
            (0.29, -2.46, 0.28),
            (0.29, -3.46, 0.28),
            (0.29, -3.46, 1.28),
            (1.29, -3.46, 1.28),
            (1.29, -3.46, 0.28)
        ]
        int[] faceVertexCounts = [
            3,
            3,
            3,
            3,
            3,
            3,
            3,
            3,
            3,
            3,
            3,
            3,
            3,
            3,
            3,
            3,
            3,
            3,
            3,
            3,
            3,
            3,
            3,
            3,
            3,
            3,
            3,
            3,
            3,
            3,
            3,
            3,
            3,
            3,
            3,
            3
        ]
        int[] faceVertexIndices = [
            0,
            3,
            2,
            0,
            1,
            3,
            8,
            5,
            4,
            8,
            9,
            5,
            10,
            7,
            6,
            10,
            11,
            7,
            12,
            14,
            13,
            12,
            15,
            14,
            16,
            18,
            17,
            16,
            19,
            18,
            20,
            22,
            21,
            20,
            23,
            22,
            24,
            27,
            26,
            24,
            25,
            27,
            32,
            29,
            28,
            32,
            33,
            29,
            34,
            31,
            30,
            34,
            35,
            31,
            36,
            38,
            37,
            36,
            39,
            38,
            40,
            42,
            41,
            40,
            43,
            42,
            44,
            46,
            45,
            44,
            47,
            46,
            48,
            51,
            50,
            48,
            49,
            51,
            56,
            53,
            52,
            56,
            57,
            53,
            58,
            55,
            54,
            58,
            59,
            55,
            60,
            62,
            61,
            60,
            63,
            62,
            64,
            66,
            65,
            64,
            67,
            66,
            68,
            70,
            69,
            68,
            71,
            70
        ]
    bool physics:collisionEnabled = 1
    uniform token physics:approximation = "triangleMesh"
        normal3f[] normals = [
            (1, 0, 0),
            (1, 0, 0),
            (1, 0, 0),
            (1, 0, 0),
            (0, 0, 1),
            (0, 0, 1),
            (-1, 0, 0),
            (-1, 0, 0),
            (0, 0, 1),
            (0, 0, 1),
            (-1, 0, 0),
            (-1, 0, 0),
            (0, 0, -1),
            (0, 0, -1),
            (0, 0, -1),
            (0, 0, -1),
            (0, 1, 0),
            (0, 1, 0),
            (0, 1, 0),
            (0, 1, 0),
            (0, -1, 0),
            (0, -1, 0),
            (0, -1, 0),
            (0, -1, 0),
            (1, 0, 0),
            (1, 0, 0),
            (1, 0, 0),
            (1, 0, 0),
            (0, 0, 1),
            (0, 0, 1),
            (-1, 0, 0),
            (-1, 0, 0),
            (0, 0, 1),
            (0, 0, 1),
            (-1, 0, 0),
            (-1, 0, 0),
            (0, 0, -1),
            (0, 0, -1),
            (0, 0, -1),
            (0, 0, -1),
            (0, 1, 0),
            (0, 1, 0),
            (0, 1, 0),
            (0, 1, 0),
            (0, -1, 0),
            (0, -1, 0),
            (0, -1, 0),
            (0, -1, 0),
            (1, 0, 0),
            (1, 0, 0),
            (1, 0, 0),
            (1, 0, 0),
            (0, 0, 1),
            (0, 0, 1),
            (-1, 0, 0),
            (-1, 0, 0),
            (0, 0, 1),
            (0, 0, 1),
            (-1, 0, 0),
            (-1, 0, 0),
            (0, 0, -1),
            (0, 0, -1),
            (0, 0, -1),
            (0, 0, -1),
            (0, 1, 0),
            (0, 1, 0),
            (0, 1, 0),
            (0, 1, 0),
            (0, -1, 0),
            (0, -1, 0),
            (0, -1, 0),
            (0, -1, 0)
        ]
        uniform token normals:interpolation = "vertex"
        texCoord2f[] primvars:st = [
            (0, 1),
            (1, 1),
            (0, 0),
            (1, 0),
            (0, 0),
            (1, 0),
            (0, 0),
            (1, 0),
            (0, 1),
            (1, 1),
            (0, 1),
            (1, 1),
            (0, 1),
            (0, 0),
            (1, 0),
            (1, 1),
            (0, 1),
            (0, 0),
            (1, 0),
            (1, 1),
            (0, 1),
            (0, 0),
            (1, 0),
            (1, 1),
            (0, 1),
            (1, 1),
            (0, 0),
            (1, 0),
            (0, 0),
            (1, 0),
            (0, 0),
            (1, 0),
            (0, 1),
            (1, 1),
            (0, 1),
            (1, 1),
            (0, 1),
            (0, 0),
            (1, 0),
            (1, 1),
            (0, 1),
            (0, 0),
            (1, 0),
            (1, 1),
            (0, 1),
            (0, 0),
            (1, 0),
            (1, 1),
            (0, 1),
            (1, 1),
            (0, 0),
            (1, 0),
            (0, 0),
            (1, 0),
            (0, 0),
            (1, 0),
            (0, 1),
            (1, 1),
            (0, 1),
            (1, 1),
            (0, 1),
            (0, 0),
            (1, 0),
            (1, 1),
            (0, 1),
            (0, 0),
            (1, 0),
            (1, 1),
            (0, 1),
            (0, 0),
            (1, 0),
            (1, 1)
        ]
        uniform token primvars:st:interpolation = "vertex"
        bool physics:collisionEnabled = 1
        uniform token physics:approximation = "none"
        uniform token subdivisionScheme = "none"
        uniform bool doubleSided = 1
    }
    def Mesh "CombinedMesh_Cylinder" (
        prepend apiSchemas = ["PhysicsCollisionAPI", "PhysicsMeshCollisionAPI"]
    )
    {
        uniform float3[] extent = [
            (-0.5000002, 4.68, -2.79),
            (0.5000001, 5.68, -0.79)
        ]
        point3f[] points = [
            (-0.1545086, 5.655529, -2.79),
            (-0.2938928, 5.584508, -2.79),
            (-0.4045087, 5.473893, -2.79),
            (-0.4755285, 5.334508, -2.79),
            (-0.5000002, 5.18, -2.79),
            (-0.4755285, 5.025491, -2.79),
            (-0.4045087, 4.886107, -2.79),
            (-0.2938927, 4.775491, -2.79),
            (-0.1545085, 4.704472, -2.79),
            (0, 4.68, -2.79),
            (0.1545085, 4.704472, -2.79),
            (0.2938927, 4.775491, -2.79),
            (0.4045086, 4.886107, -2.79),
            (0.4755283, 5.025491, -2.79),
            (0.5000001, 5.18, -2.79),
            (0.4755283, 5.334508, -2.79),
            (0.4045085, 5.473892, -2.79),
            (0.2938927, 5.584508, -2.79),
            (0.1545085, 5.655528, -2.79),
            (0, 5.68, -2.79),
            (-0.1545086, 5.655529, -0.79),
            (-0.2938928, 5.584508, -0.79),
            (-0.4045087, 5.473893, -0.79),
            (-0.4755285, 5.334508, -0.79),
            (-0.5000002, 5.18, -0.79),
            (-0.4755285, 5.025491, -0.79),
            (-0.4045087, 4.886107, -0.79),
            (-0.2938927, 4.775491, -0.79),
            (-0.1545085, 4.704472, -0.79),
            (0, 4.68, -0.79),
            (0.1545085, 4.704472, -0.79),
            (0.2938927, 4.775491, -0.79),
            (0.4045086, 4.886107, -0.79),
            (0.4755283, 5.025491, -0.79),
            (0.5000001, 5.18, -0.79),
            (0.4755283, 5.334508, -0.79),
            (0.4045085, 5.473892, -0.79),
            (0.2938927, 5.584508, -0.79),
            (0.1545085, 5.655528, -0.79),
            (0, 5.68, -0.79),
            (0, 5.18, -2.79),
            (0, 5.18, -0.79),
            (0, 4.68, -2.79),
            (0, 4.68, -0.79),
            (0, 5.68, -2.79),
            (0, 5.68, -0.79),
            (-0.1545086, 5.655529, -0.79),
            (-0.1545086, 5.655529, -2.79),
            (-0.2938928, 5.584508, -2.79),
            (-0.1545086, 5.655529, -2.79),
            (-0.4045087, 5.473893, -2.79),
            (-0.4755285, 5.334508, -2.79),
            (-0.5000002, 5.18, -2.79),
            (-0.4755285, 5.025491, -2.79),
            (-0.4045087, 4.886107, -2.79),
            (-0.2938927, 4.775491, -2.79),
            (-0.1545085, 4.704472, -2.79),
            (0, 4.68, -2.79),
            (0.1545085, 4.704472, -2.79),
            (0.2938927, 4.775491, -2.79),
            (0.4045086, 4.886107, -2.79),
            (0.4755283, 5.025491, -2.79),
            (0.5000001, 5.18, -2.79),
            (0.4755283, 5.334508, -2.79),
            (0.4045085, 5.473892, -2.79),
            (0.2938927, 5.584508, -2.79),
            (0.1545085, 5.655528, -2.79),
            (0, 5.68, -2.79),
            (-0.1545086, 5.655529, -0.79),
            (-0.2938928, 5.584508, -0.79),
            (-0.4045087, 5.473893, -0.79),
            (-0.4755285, 5.334508, -0.79),
            (-0.5000002, 5.18, -0.79),
            (-0.4755285, 5.025491, -0.79),
            (-0.4045087, 4.886107, -0.79),
            (-0.2938927, 4.775491, -0.79),
            (-0.1545085, 4.704472, -0.79),
            (0, 4.68, -0.79),
            (0.1545085, 4.704472, -0.79),
            (0.2938927, 4.775491, -0.79),
            (0.4045086, 4.886107, -0.79),
            (0.4755283, 5.025491, -0.79),
            (0.5000001, 5.18, -0.79),
            (0.4755283, 5.334508, -0.79),
            (0.4045085, 5.473892, -0.79),
            (0.2938927, 5.584508, -0.79),
            (0.1545085, 5.655528, -0.79),
            (0, 5.68, -0.79)
        ]
        int[] faceVertexCounts = [
            3,
            3,
            3,
            3,
            3,
            3,
            3,
            3,
            3,
            3,
            3,
            3,
            3,
            3,
            3,
            3,
            3,
            3,
            3,
            3,
            3,
            3,
            3,
            3,
            3,
            3,
            3,
            3,
            3,
            3,
            3,
            3,
            3,
            3,
            3,
            3,
            3,
            3,
            3,
            3,
            3,
            3,
            3,
            3,
            3,
            3,
            3,
            3,
            3,
            3,
            3,
            3,
            3,
            3,
            3,
            3,
            3,
            3,
            3,
            3,
            3,
            3,
            3,
            3,
            3,
            3,
            3,
            3,
            3,
            3,
            3,
            3,
            3,
            3,
            3,
            3,
            3,
            3,
            3,
            3
        ]
        int[] faceVertexIndices = [
            0,
            21,
            20,
            0,
            1,
            21,
            1,
            22,
            21,
            1,
            2,
            22,
            2,
            23,
            22,
            2,
            3,
            23,
            3,
            24,
            23,
            3,
            4,
            24,
            4,
            25,
            24,
            4,
            5,
            25,
            5,
            26,
            25,
            5,
            6,
            26,
            6,
            27,
            26,
            6,
            7,
            27,
            7,
            28,
            27,
            7,
            8,
            28,
            8,
            29,
            28,
            8,
            9,
            29,
            42,
            30,
            43,
            42,
            10,
            30,
            10,
            31,
            30,
            10,
            11,
            31,
            11,
            32,
            31,
            11,
            12,
            32,
            12,
            33,
            32,
            12,
            13,
            33,
            13,
            34,
            33,
            13,
            14,
            34,
            14,
            35,
            34,
            14,
            15,
            35,
            15,
            36,
            35,
            15,
            16,
            36,
            16,
            37,
            36,
            16,
            17,
            37,
            17,
            38,
            37,
            17,
            18,
            38,
            18,
            39,
            38,
            18,
            19,
            39,
            44,
            46,
            45,
            44,
            47,
            46,
            86,
            87,
            41,
            85,
            86,
            41,
            87,
            68,
            41,
            84,
            85,
            41,
            68,
            69,
            41,
            83,
            84,
            41,
            69,
            70,
            41,
            82,
            83,
            41,
            70,
            71,
            41,
            81,
            82,
            41,
            71,
            72,
            41,
            80,
            81,
            41,
            72,
            73,
            41,
            79,
            80,
            41,
            73,
            74,
            41,
            78,
            79,
            41,
            74,
            75,
            41,
            77,
            78,
            41,
            75,
            76,
            41,
            76,
            77,
            41,
            67,
            66,
            40,
            49,
            67,
            40,
            66,
            65,
            40,
            48,
            49,
            40,
            65,
            64,
            40,
            50,
            48,
            40,
            64,
            63,
            40,
            51,
            50,
            40,
            63,
            62,
            40,
            52,
            51,
            40,
            62,
            61,
            40,
            53,
            52,
            40,
            61,
            60,
            40,
            54,
            53,
            40,
            60,
            59,
            40,
            55,
            54,
            40,
            59,
            58,
            40,
            56,
            55,
            40,
            58,
            57,
            40,
            57,
            56,
            40
        ]
    bool physics:collisionEnabled = 1
    uniform token physics:approximation = "triangleMesh"
        normal3f[] normals = [
            (-0.309016, 0.9510568, 0),
            (-0.5877854, 0.8090169, 0),
            (-0.8090171, 0.5877851, 0),
            (-0.9510566, 0.3090168, 0),
            (-1, 0, 0),
            (-0.9510565, -0.3090171, 0),
            (-0.8090169, -0.5877855, 0),
            (-0.5877851, -0.8090171, 0),
            (-0.3090169, -0.9510565, 0),
            (0, -1, 0),
            (0.309017, -0.9510565, 0),
            (0.5877854, -0.8090169, 0),
            (0.8090171, -0.5877852, 0),
            (0.9510565, -0.3090169, 0),
            (1, 0, 0),
            (0.9510565, 0.3090171, 0),
            (0.809017, 0.5877852, 0),
            (0.5877852, 0.809017, 0),
            (0.3090169, 0.9510565, 0),
            (0, 1, 0),
            (-0.309016, 0.9510568, 0),
            (-0.5877854, 0.8090169, 0),
            (-0.8090171, 0.5877851, 0),
            (-0.9510566, 0.3090168, 0),
            (-1, 0, 0),
            (-0.9510565, -0.3090171, 0),
            (-0.8090169, -0.5877855, 0),
            (-0.5877851, -0.8090171, 0),
            (-0.3090169, -0.9510565, 0),
            (0, -1, 0),
            (0.309017, -0.9510565, 0),
            (0.5877854, -0.8090169, 0),
            (0.8090171, -0.5877852, 0),
            (0.9510565, -0.3090169, 0),
            (1, 0, 0),
            (0.9510565, 0.3090171, 0),
            (0.809017, 0.5877852, 0),
            (0.5877852, 0.809017, 0),
            (0.3090169, 0.9510565, 0),
            (0, 1, 0),
            (0, 0, -1),
            (0, 0, 1),
            (0, -1, 0),
            (0, -1, 0),
            (0, 1, 0),
            (0, 1, 0),
            (-0.309016, 0.9510568, 0),
            (-0.309016, 0.9510568, 0),
            (0, 0, -1),
            (0, 0, -1),
            (0, 0, -1),
            (0, 0, -1),
            (0, 0, -1),
            (0, 0, -1),
            (0, 0, -1),
            (0, 0, -1),
            (0, 0, -1),
            (0, 0, -1),
            (0, 0, -1),
            (0, 0, -1),
            (0, 0, -1),
            (0, 0, -1),
            (0, 0, -1),
            (0, 0, -1),
            (0, 0, -1),
            (0, 0, -1),
            (0, 0, -1),
            (0, 0, -1),
            (0, 0, 1),
            (0, 0, 1),
            (0, 0, 1),
            (0, 0, 1),
            (0, 0, 1),
            (0, 0, 1),
            (0, 0, 1),
            (0, 0, 1),
            (0, 0, 1),
            (0, 0, 1),
            (0, 0, 1),
            (0, 0, 1),
            (0, 0, 1),
            (0, 0, 1),
            (0, 0, 1),
            (0, 0, 1),
            (0, 0, 1),
            (0, 0, 1),
            (0, 0, 1),
            (0, 0, 1)
        ]
        uniform token normals:interpolation = "vertex"
        texCoord2f[] primvars:st = [
            (0.1005999, 0.9995463),
            (0.2005054, 0.9995463),
            (0.300411, 0.9995463),
            (0.4003165, 0.9995463),
            (0.500222, 0.9995463),
            (0.6001273, 0.9995463),
            (0.7000327, 0.9995463),
            (0.799938, 0.9995463),
            (0.8998432, 0.9995463),
            (0.999749, 0.9995463),
            (0.1005993, 0.9995463),
            (0.200505, 0.9995463),
            (0.3004106, 0.9995463),
            (0.400316, 0.9995463),
            (0.5002215, 0.9995463),
            (0.6001268, 0.9995463),
            (0.7000322, 0.9995463),
            (0.7999375, 0.9995463),
            (0.8998428, 0.9995463),
            (0.9997481, 0.9995463),
            (0.1005996, 0.00056922),
            (0.2005053, 0.00056922),
            (0.300411, 0.00056922),
            (0.4003165, 0.00056922),
            (0.500222, 0.00056922),
            (0.6001273, 0.00056922),
            (0.7000328, 0.00056922),
            (0.7999381, 0.00056922),
            (0.8998435, 0.00056922),
            (0.9997491, 0.00056922),
            (0.1005996, 0.00056922),
            (0.2005051, 0.00056922),
            (0.3004106, 0.00056922),
            (0.400316, 0.00056922),
            (0.5002215, 0.00056922),
            (0.6001268, 0.00056922),
            (0.7000321, 0.00056922),
            (0.7999371, 0.00056922),
            (0.8998424, 0.00056922),
            (0.9997478, 0.00056922),
            (0.5002239, 0.5000557),
            (0.5002245, 0.5000558),
            (0.00069369, 0.9995463),
            (0.00069404, 0.00056922),
            (0.00069427, 0.9995463),
            (0.00069391, 0.00056922),
            (0.1005996, 0.00056922),
            (0.1005999, 0.9995463),
            (0.0988569, 0.2084461),
            (0.02838877, 0.3467477),
            (0.2086136, 0.09868926),
            (0.3469154, 0.02822095),
            (0.500224, 0.00393915),
            (0.6535327, 0.02822095),
            (0.7918344, 0.09868938),
            (0.901591, 0.2084464),
            (0.9720588, 0.3467479),
            (0.9963405, 0.5000563),
            (0.9720586, 0.6533645),
            (0.9015904, 0.7916659),
            (0.7918337, 0.9014224),
            (0.653532, 0.9718906),
            (0.5002234, 0.9961721),
            (0.346915, 0.9718903),
            (0.2086136, 0.901422),
            (0.09885708, 0.7916653),
            (0.02838913, 0.6533639),
            (0.00410751, 0.5000558),
            (0.9720596, 0.3467477),
            (0.9015915, 0.2084461),
            (0.7918347, 0.09868926),
            (0.653533, 0.02822095),
            (0.5002243, 0.00393915),
            (0.3469157, 0.02822095),
            (0.2086142, 0.09868938),
            (0.0988576, 0.2084463),
            (0.0283896, 0.3467478),
            (0.00410803, 0.5000561),
            (0.02838971, 0.6533644),
            (0.09885782, 0.7916659),
            (0.2086144, 0.9014224),
            (0.3469159, 0.9718906),
            (0.5002242, 0.9961722),
            (0.6535327, 0.9718906),
            (0.7918344, 0.9014224),
            (0.901591, 0.7916657),
            (0.9720591, 0.6533643),
            (0.9963408, 0.5000561)
        ]
        uniform token primvars:st:interpolation = "vertex"
        bool physics:collisionEnabled = 1
        uniform token physics:approximation = "none"
        uniform token subdivisionScheme = "none"
        uniform bool doubleSided = 1
    }
}
